<svg id="Layer_1" data-name="Layer 1" xmlns="http://www.w3.org/2000/svg" xmlns:xlink="http://www.w3.org/1999/xlink" viewBox="0 0 848.14 614.35"><defs><style>.cls-1{fill:url(#linear-gradient);}.cls-2{fill:#387882;}.cls-3{fill:url(#linear-gradient-2);}.cls-4{fill:url(#linear-gradient-3);}.cls-5{fill:url(#linear-gradient-4);}.cls-6{fill:#143038;}.cls-7{fill:none;stroke:#143038;stroke-miterlimit:10;}.cls-8{fill:url(#linear-gradient-5);}</style><linearGradient id="linear-gradient" x1="642.5" y1="84.76" x2="1353.02" y2="84.76" gradientTransform="matrix(1, 0, 0, -1, -504.88, 398.48)" gradientUnits="userSpaceOnUse"><stop offset="0" stop-color="#143038"/><stop offset="0.54" stop-color="#2c6069"/><stop offset="0.87" stop-color="#387882"/></linearGradient><linearGradient id="linear-gradient-2" x1="1136.32" y1="-169.68" x2="1142.23" y2="-169.68" xlink:href="#linear-gradient"/><linearGradient id="linear-gradient-3" x1="1006.59" y1="-170.56" x2="1010.4" y2="-170.56" xlink:href="#linear-gradient"/><linearGradient id="linear-gradient-4" x1="855.95" y1="-176.93" x2="858.69" y2="-176.93" xlink:href="#linear-gradient"/><linearGradient id="linear-gradient-5" x1="100.23" y1="494.88" x2="56.8" y2="570.39" gradientTransform="matrix(1, 0, 0, -1, 0, 613.89)" gradientUnits="userSpaceOnUse"><stop offset="0" stop-color="#143038"/><stop offset="0.2" stop-color="#16343c"/><stop offset="0.42" stop-color="#1d414a"/><stop offset="0.66" stop-color="#275760"/><stop offset="0.89" stop-color="#36747e"/><stop offset="0.92" stop-color="#387882"/></linearGradient></defs><g id="Layer_1-2" data-name="Layer 1"><path class="cls-1" d="M844.87,109.44l.16.07L637.35,561.73l-5.91,12.86c-14.3,25.43-40.57,41.64-68.83,39.24-24.66-2.09-45.66-17.9-57.09-40.44l-3.81-8.72h0l-68-155.57-79.9,163.49-2.69,5.62h0c-13.88,25.73-39.09,37.16-66.66,36.07-31-1.22-57.17-24.19-66.4-55.71L137.62,395.08l.93-.46a13.2,13.2,0,0,0,.85,1.57c14.73,23.13,40.21,32.09,67.64,32.17,41-6.39,68.2-33.31,76.28-76.33,0-4.35,4-8.7,3.28-13a12.68,12.68,0,0,0-1.24-3.79l1.92-1-1-1.84,76.59-142.54H363a82.25,82.25,0,0,1,22.52-30.92c12.93-10.91,29.08-17.2,46.34-16.65a67.89,67.89,0,0,1,42,16.65,155.4,155.4,0,0,1,24.77,36.65l78.56,149.3L710.36,56.33l.55-1.2c20.52-35.55,62.56-51.77,96.73-36,31.47,14.52,47,51.91,37.94,88.55A7.46,7.46,0,0,1,844.87,109.44Z"/><path class="cls-2" d="M710.91,55.08l-.55,1.2A7.25,7.25,0,0,1,710.91,55.08Z"/><path class="cls-3" d="M631.44,574.59l5.91-12.87A87,87,0,0,1,631.44,574.59Z"/><path class="cls-4" d="M501.71,564.68l3.81,8.72A81.3,81.3,0,0,1,501.71,564.68Z"/><path class="cls-5" d="M351.12,578.21l2.74-5.61C353,574.59,352,576.41,351.12,578.21Z"/><path class="cls-6" d="M207,352l15.44-5.58"/><path class="cls-6" d="M207,352"/><path class="cls-6" d="M166,268.36l-12,4.39"/><path class="cls-6" d="M239.55,237l-4.9,2.09"/><path class="cls-6" d="M240.65,239.32l30.79,65.27h0l14.8,27.75,1,1.84-1.92,1v.07a12.9,12.9,0,0,1,1.22,3.77,82,82,0,0,1,1,13c0,44.66-36.36,81.41-80.54,81.41a80.49,80.49,0,0,1-67.66-37.25,13.2,13.2,0,0,1-.85-1.57l-.89.44-5.75-11.69-41-87.59a82.82,82.82,0,0,1-4.66-27.41c0-44.66,36-81.41,79.75-81.41,32.16,0,62.81,21.89,75.18,52.14Z"/><path class="cls-7" d="M138.48,394.44a1,1,0,0,1,.07.15l0,0"/><polyline class="cls-7" points="239.55 237 240.65 239.32 271.44 304.59 271.46 304.59 286.26 332.34 287.26 334.18 285.34 335.18"/><path class="cls-7" d="M285.34,335.25a12.9,12.9,0,0,1,1.22,3.77,82,82,0,0,1,1,13c0,44.66-36.36,81.41-80.54,81.41a80.49,80.49,0,0,1-67.66-37.25,13.2,13.2,0,0,1-.85-1.57"/><path class="cls-6" d="M124.6,283.48"/><path class="cls-6" d="M124.6,283.48"/></g><g id="Moon"><ellipse id="Moon-2" class="cls-8" cx="76.97" cy="78.57" rx="76.97" ry="78.57"/></g></svg>