<svg xmlns="http://www.w3.org/2000/svg" fill="none" viewBox="0 0 372 450" class="hide-on-mobile home_quetzalcoatl__nfAKe"><defs/><g fill="#FFFCF7" clip-path="url(#quetzalcoatl_svg__a)"><path d="M254.5 421.2a79 79 0 0033.4 2c11.5-1.6 23-5.8 35.1-12.7a10 10 0 004.7-5.7 59.8 59.8 0 0119.6-28.5l6.8-5 7.2-5.4c2-1.7 4.5-3.6 6.6-5.9 3-3.2 4-7.4 3-12.7-.3-1.8-1.1-2.4-3.2-2.3-1 0-2 .2-2.7.4l-22 4.5a12144.6 12144.6 0 00-48.7 10.2 34 34 0 01-25-3.8c-3.5-1.9-6.9-4.2-10.1-6.4h-.1a24 24 0 00-9.6-4.3c-.8-.3-1.3-.5-1.4-.9-.2-.4 0-1 .5-1.7a16 16 0 002.4-10.6c-.2-1.1.3-1.9 1.5-2.3l.4-.2 1.2-.4c.5-.2 1-.2 1.4 0 .3 0 .6.4.8.9l.5 1.1 1 2.5c.7 1.5 1.3 1.8 3 1.6l1.3-.4.4-.1 8.2-2.5 9.5-2.8 22.4-6.6 45.8-13.6.8-.3c2.4-.7 5-1.4 7.4-2.3 2.1-.7 2.8-1.6 2.6-3.8a165 165 0 00-3.2-12.3c-.5-1.5-.5-2.6 1-3.8a25 25 0 003.8-4.5c1.8-2.6 2.4-5.7 1.6-9.3-.3-1-.8-1.6-1.7-2.1a84.5 84.5 0 01-12.8-7.8 12 12 0 00-5-2.2c-2.1-.3-5-.3-6.7 2.3-1.3 1.9-3 2.6-5.1 3.2l-11.3 3.2-22.7 6.2-.4.1c-6.7 1.8-7.2 2-13.2-2.8a41 41 0 00-23.6-9.4c-1.5-.1-2.4-.8-2.8-2.3-1-3.8-2.7-7.3-5.5-11a32.3 32.3 0 00-31.4-13.2c-4.4.6-9 1.8-14.3 3.9a412.7 412.7 0 00-11 4.3 35 35 0 01-17.2 2.5h-1c-.7 0-1.2 0-1.4.3-.3.3-.4.8-.3 1.4a10 10 0 004 7.7c1.2 1 1.8 2 1.9 3.6.2 4.4 2 8.7 5 13.2 2 2.8 4.4 5 7.4 6.4l1.3.6 1.2.6c.5.3 1 .6 1 1 .2.6-.2 1-.5 1.5l-1.5 1.6-1.3 1.1-2.3 2.3c-2 2.5-4.7 4.6-8.1 6.4l-2.7 1.5c-4.7 2.5-9.5 5-14.5 7.2A396.1 396.1 0 0191.6 329c-18.5 4-36 6-53.3 6.2a226.7 226.7 0 01-41.3-3c-.3 0-.6 0-.7.2l-.1.3c0 .3.4.8.7 1 .4.2.9.2 1.4.3h.6a246.5 246.5 0 0066.6 1.2c16.2-1.8 33-5.4 50-10.4a448 448 0 0043.2-15.3 158.9 158.9 0 0031.1-15.6l.4-.2.1.4v.3l.2.9a124.4 124.4 0 01-1.4 6.2c-.2 1-.7 1.8-1.7 2.1l-.7.3-1 .3-5.3 2.3-13.5 6-8.8 4.4a270.5 270.5 0 01-68.6 23.5 277.4 277.4 0 01-69.6 4.9L6.7 344l-4.6-.6a63.5 63.5 0 01-4.6-.6c-.5 0-.8 0-1 .2-.2.1-.3.4-.3.8v7.8c0 .5.5 1.1.9 1.6.5.9 1.2 1.7 1.8 2.5l2 2.7c1.5 2.2 3.2 3.9 5.2 5 0 .2.2.2.3.3.5.2.9.5 1.2.8 0 .1.9 1.1.7 1.9-.1.6-1 1.2-1.5 1.3-.7.2-1.5.2-2.3.1h-.3l-1.8-.1-2.8-.2c-1.8 0-2.7 0-3.1.4-.4.4-.4 1.3-.4 3.2 0 1.6.5 2.4 1.9 2.8 3 1.1 5.4 3.1 8.1 6.5l1.8 2.3c2.3 2.9 4.6 6 7.5 8.4.3.3 1 1.1.6 1.6-.3.5-1 1.1-1.6 1.2H9.7l-4.8-.4-6.6-.5c-1 0-1.6 0-1.9.2-.3.2-.3.9-.4 2v.4c0 3.5 0 3.5 3.5 3.9 3.7.4 7.7.9 11.7 1.6a18 18 0 0110.1 5.2l1.2 1.2a31 31 0 007.2 6.3l.4.2c.3.4.4 1 .3 1.6-.2.4-.5.8-1 .8l-.4.1c-1.5.3-3 .5-4.6.5H12.3v.2l-2.4-.2-3.9-.2-8.5-.4c-.8 0-1.2.4-1.3 1.2v1c-.2 4.2-.2 4.3 4 4.5l4.4.3 10.9.7c6.1.5 12.2.4 19.5 0 5.6-.2 11.2-.2 16.7 0 4.6 0 8.3 2.1 11.1 6l.2.2 1 1.2c.2.3.6.4 1 .3.3 0 .5-.3.6-.6.2-.7.3-1.5.2-2.3l-.2-1.3-1.6-13.2-2.3-14-.5-2.8c-.2-1.4-.5-1.7-2-1.7H57c-3 0-6-.6-9.1-2-9-4-14.4-13.3-13.8-23.5.9-14.4 13.4-21.8 23.7-23.5a75.8 75.8 0 0111.7-1.2c.4.3.6 1 .7 2a25384 25384 0 0112.4 85c.2 1.5-.2 2-1.8 2.2l-8.5 1-.7.1a263.8 263.8 0 01-29.1 2 139.2 139.2 0 00-11.5.4l-4.5.2a238.1 238.1 0 01-29.7-1.8l-.4.3v.9a6 6 0 002.3.6l6 .5c5.5.4 11.1 1 16.7 1 8.4.1 16.7-.2 24.8-.6 7.7-.4 16.4-.8 24.9-1.6a315 315 0 0039.5-7 313.6 313.6 0 0064-22.4l5-2.4c1-.4 2-.8 2.7-.5l6 3.8.9.6c.2.1.2.4.2.7 0 .2 0 .6-.3.8l-2.9 1.5-3.5 1.5a428 428 0 01-107.8 30 274 274 0 01-41.2 2.7h-9c-8.7.1-17.5.2-26.3-.6h-.7c-.8 0-1.1.1-1.2.2.1.6.5.7 1.1.8l.7.1c.3.2.6.2 1 .2l2.7.3a205.4 205.4 0 0028.8 1A354.2 354.2 0 00139.2 432a389.7 389.7 0 0051.6-19.4c1.2-.5 2.2-.5 3.3.2 1.6 1 3.3 1.8 5 2.7a252 252 0 0037.4 15.3c1.5.3 2.3.3 2.6 0 .4-.4.5-1.1.4-2.2l.1-3 .2-1.4c.4-7.2 2-14 5-20.4.6-1.4 1.4-2.6 2.6-3.8 5-5 7.1-10.9 6.3-17.8-.4-3-1.4-6-3-9-.2-.2-.2-.7 0-1 .3-.3.9-.2 1.2 0l.4.2a83 83 0 013.7 2.5 38 38 0 0017.4 6.6l.9.5.3.2.4.2-.3.3-.1.3-.5.6c-5 4.1-8.8 9.6-12 17.3l-1.9 5-.6 1.6c-1.3 3.5-3 7.4-6.2 10.5-.8.8-1.1 1.5-1 2 .2.5 1 1 2.1 1.2zM14.2 359.5a5 5 0 01-5-4.8 4.8 4.8 0 015-4.7c2.9 0 5 2 5 4.8a5 5 0 01-1.4 3.3 5 5 0 01-3.5 1.4H14zm9.3 23.4a5 5 0 01-3.5 1.6h-.2a5 5 0 01-3.5-1.4 5 5 0 01-1.5-3.5 5 5 0 011.4-3.6 5 5 0 013.7-1.5 5 5 0 015 4.7 5 5 0 01-1.4 3.7zm12.6 19.6c0 1.3-.4 2.6-1.3 3.6-1 1-2.3 1.6-3.7 1.7h-.2a5.2 5.2 0 01-5-5.1c0-2.7 2.2-4.7 5-4.7h.1c2.9 0 5 1.8 5 4.5zM279.8 418a9.2 9.2 0 01-8 4.2c-1 0-2.2-.2-3.4-.5a1 1 0 01-.9-.6c0-.3 0-.7.3-1 3-3.6 4.6-8 6.1-12.1l.7-1.8c1-2.5 2.1-5.2 3.4-7.8a35 35 0 0111.5-13.6l.5-.4 1-.6a8.5 8.5 0 017.1-2.8l1-.1 2-.3c.2 0 .7.2.9.5.1.4 0 .8-.2 1l-.7.7-.1.1a34 34 0 00-7.9 10.4c-1 1.8-1.8 3.8-2.7 5.7l-3.5 7c-1.3 2.7-2.9 5.2-4.3 7.7l-1.7 2.9-.7 1c-.2 0-.3.3-.4.4zm14.3 1a8.9 8.9 0 01-3.3 1.5l-5.3 1c-.6 0-1.1 0-1.6.2h-2c-.5 0-.9-.3-1-.6-.2-.3-.2-.8 0-1.2l.5-.6a80.3 80.3 0 009.3-16.2c1.8-4 3.7-7.7 5.6-11.1 2.3-4.4 6-8 11.5-11.7.7-.4 1.5-.8 2.4-1l7.7-1.3.8.2.2.1.4.1-.2.6-.2.5-.3.3a67.5 67.5 0 00-14.5 22.4l-4.6 10a16 16 0 01-5.4 6.7zm13.1-4.1a18 18 0 01-7.4 3.6h-.1l-.3-.1c-.2 0-.3-.2-.5-.3-.3-.2-.1-.7 0-.8l.3-.7c2-2.6 3.3-5.7 4.6-8.6l1-2.3 1-2c1.6-3.4 3.2-7 5-10.5 3.3-6 7.9-11.3 13.5-15.6a11 11 0 013.2-1.7 76 76 0 015.4-1.5l1.2-.3h.8l.3.2h.5l-.3.5-.1.3-.5.7a54 54 0 00-8.4 8.5 85.8 85.8 0 00-8.2 14l-1.9 3.8-2 3.9a28.3 28.3 0 01-7 8.9zm42.9-43.6l-.2.2-.3.4a466 466 0 01-4.2 3.4l-1 .9a51.2 51.2 0 00-13.2 16c-2.2 4.2-4 8.5-5.7 12.6a7 7 0 01-3.3 3.8l-3 1.7a385 385 0 01-5 2.4h-1.1l.1-.5v-.3c.2-.2.2-.4.3-.7l2.2-4 3.3-6 3.2-6.3 1-1.9a52.6 52.6 0 0120.1-20.8c1.2-.8 2.7-1 4-1.4l1.8-.4.7.2.1.1.4.3-.2.3zm-104-28.4c-3.3 4.6-8 6.8-15 7l-1.1-.2c-1.2-.2-2.6-.4-4-1a13.4 13.4 0 01-8.7-9.2c-1.1-4.3 0-8.9 3.1-12.5a18 18 0 0119.9-5c4.1 1.7 7.1 5 8.3 9 1.1 4 .2 8.3-2.4 12zm-103.9 15l3.6 6.2c.3.4.3.8.2 1.2-.1.3-.4.7-1 1l-.7.3a356.3 356.3 0 01-53.2 14l-3 .4c-.4 0-.7-.1-1-.3-.7-.5-.8-1.4-1-3.3l-.3-2.2v-.7c-.2-1.6.3-2.1 2-2.6l6-1.3 9.2-2.1a228 228 0 0036-11l.4-.1.5-.2c1-.4 1.8-.1 2.3.7zm-1.8-6.6c0-.3.2-.8.9-1.1 6-3.5 11.1-8.3 16.1-12.9l5-4.4.4-.4c4.5-4 9.2-8 14.2-11.5 10.3-7 22-10.3 37-10.5l2.5.2 8.4 1 13.5 1.9 4 .6a6 6 0 012.3.5c.5.2.8 1 .7 1.5 0 .5-.6 1.2-1.1 1.3-1 0-2 0-3.3-.2a78 78 0 00-70 27.4l-3.4 3.4c-5 5-10.4 9.2-16.2 12.4l-.4.2-.8.5a5 5 0 01-2 .7c-.9 0-1.4-.6-2.2-1.8a15.7 15.7 0 01-1.6-2.8c-1-1.8-1.8-3.5-3.4-4.8-.4-.3-.6-.8-.6-1.2zm-49.7 42.5l8.4-2 2-.4c7.8-1.8 15.5-4.2 23-6.6l5.6-1.8a2429.4 2429.4 0 0020.7-6.5c2.3-.7 2.6-.7 4 1.3l.7 1c.9 1.2 1.3 1.8 1.2 2.4-.2.7-1 1-2.8 1.8l-.4.2a262.3 262.3 0 01-57.4 18l-3.4.7a7 7 0 01-1.4.3c-.4 0-.6-.1-.9-.3-.5-.3-.7-1.1-.8-2.2l-.3-2.2v-.9c-.1-1.8 0-2.3 1.8-2.8zm65.5-17.3l.1-.2c.6-1 1.5-1.2 2.3-1.3l1.2-.4 2-1.3c1.4-.7 2.8-1.5 4-2.4a131.6 131.6 0 0020.8-19.6l10-10.4a63 63 0 0116.7-12.1l.3-.1 1.7-.8c.3-.1.8 0 1 .2.2.2.2.5.2.8v.1l-.1.4c-.8 3.5-2.7 6.4-6 9.2-4.7 4.1-8.3 9.3-11.8 14.3l-.5.7-8.9 12.5a72.7 72.7 0 01-11.4 12.8 25.7 25.7 0 01-13 6.3l-.9.2-.1-.1a3 3 0 00-.4-.2c-.4-.2-.8-.4-1.2-.8a74 74 0 01-5.2-6.6l-.7-1v-.2zm58-50a70.1 70.1 0 00-20.8 15.1l-9.2 9.6-3.6 3.8c-4.2 4.5-9.3 9.6-15.2 14-2 1.5-4.2 2.8-6.4 4l-2.2.7-1.2.3h-.3l-.6-.4c-.4-.3-1-.6-1.3-1l-3.2-5.2-1-1.6c-.2-.5-.3-1-.2-1.4.1-.4.4-.8 1-1.1a91.1 91.1 0 0023.8-19l1-1A75 75 0 01222 319h.8l1.7-.2h4.7l-4 2.2-.4.1-.5.3a26.3 26.3 0 01-7.3 4c-1 .3-1.9.7-2.8 1.2zm75.9-2.3c-.2.4-.6.7-1.2 1l-4.2 1.2-2.3.7-3.4 1-6 1.9-1.2.2c-.3 0-.6-.1-.8-.3-.5-.4-.6-1.2-.5-1.7a12 12 0 0111.1-11.2 9 9 0 018.4 5.7c.2.6.3 1.1 0 1.5zm22-6.5c-.2.4-.6.7-1.3 1l-7 2-3.3 1a160.8 160.8 0 01-5.9 1.5c-.3 0-.6 0-.8-.3-.4-.2-.6-.8-.6-1.5.1-5.2 5.1-10.4 10.3-10.7 3.6-.1 7 2 8.4 5.5.3.7.4 1.1.2 1.5zm20.3-6.2c-.2.6-.8 1-1.7 1.2l-7.4 2.2a571.5 571.5 0 01-6.6 1.9l-.7-.2a2 2 0 01-.8-1.3v-.2l-.2-.6v-1c0-4 3-7.7 7-8.6 4-1 8.1.8 10 4.4.4.7.7 1.5.4 2.2zm21-6.1c-.1.4-.5.6-1 .8l-4.4 1.3a1142.9 1142.9 0 01-10.6 3c-.3 0-.5 0-.8-.2-.4-.3-.5-1-.3-2v-.1c.8-4 2.9-6.8 6.1-8.5 2.1-1 4.4-1.2 6.5-.4a8 8 0 014.6 4.8v1.3zm6.5-28c.2 0 .3.2.4.5l.1.3.1.2v.1l-.3.7a7 7 0 01-.8 1.9 32 32 0 01-3.4 4.1c-1 1-2.3 1.4-3 1.6l-27.6 7.6-13.6 3.7-8.1 2.2-10.7 3a19 19 0 00-6.6 3.1L271 318a75.5 75.5 0 01-15.8 9l-.3.1c-1 .4-1.8.8-2.8 1l-1.3.3c-.8 0-1.4-.5-2-1.7-.2-.5-.2-.9 0-1.3.1-.3.4-.6 1-.9l2.2-.9c1.5-.6 3.1-1.2 4.6-2a82 82 0 0016.7-11.2 633 633 0 018-6.6c3-2.6 6.4-4.3 10.1-5.3a3608 3608 0 0039.2-10.5l3.7-1 16.3-4.4a14.8 14.8 0 007-3.9l1.3-1c.2-.2.6-.4 1-.3zm-92.4-10a41 41 0 0114.6 7.5 40 40 0 004.6 3.3 8.8 8.8 0 007.2 1c6-1.8 12-3.4 17.9-5l9.6-2.6 4.7-1.4 7.6-2c1.6-.5 2.7-1 3.4-2.4 1.1-2.3 3.2-3 5.9-2.4 1.1.4 2.3.9 3.3 1.5l7.6 4.8 3.5 2.3c1 .5 1.5 1 1.6 1.6 0 .6-.4 1.2-1.1 1.9a17.4 17.4 0 01-8.2 5.1l-25.9 7-8.8 2.4-26 7c-.7.3-1.3.4-1.8.5h-.6c-.8 0-1.4-.4-1.8-1.2l-.4-.7-3-5.1a25.2 25.2 0 00-19.5-11.6c-4.8-.4-9.7.7-15 3.2-2.2 1-4.3 2.3-6.4 3.6l-3.2 1.9-2 1.1-6.4 3.6c-4.9 2.5-10.1 2.3-16.4-.5a18.6 18.6 0 01-7.9-6.8 14 14 0 01-2.6-8.8c-.1-6.1 2-10.9 6.5-14.5 2.5-2 5-3 7.7-3.2a10 10 0 0110.5 5.9c1.6 3 2 6.2 1 9.6a8.5 8.5 0 01-2.7 4.3c-1 .9-1.9 2-2.8 3.1 0 .2 0 .7.2.8.1.1.6.2.8.1l1.9-1.4c3.7-3.3 7.8-6.3 12.4-9a43.1 43.1 0 0119-6c3.3-.2 6.8.2 11 1.4zM178 253c-.3-.6-.5-1.4-.2-2 .3-.5 1.1-.6 1.7-.6h2l4.3-.3c4.8-.7 9.3-2.3 14.2-4.2l2.8-1.1 9.2-3.5c4.3-1.5 8.7-2.3 13-2.3a30 30 0 0125 12.8c2 2.8 3.5 6 4.8 8.7.6 1.3.9 2 .5 2.7-.3.6-1.2.8-2.3 1h-.7c-1.3.3-2.1.5-2.8.5-1.6 0-2-1-3-3.7l-.2-.4c-.6-1.5-1.2-3.1-2-4.5a17 17 0 00-9.1-7.2 27.1 27.1 0 00-21.5 1.4 89 89 0 01-21.9 7.4c-3.2.7-5.8.6-8.3-.1a8.5 8.5 0 01-5.5-4.6zm11.4 22.2a22.5 22.5 0 01-6.2-13.2c0-.6-.1-1.2.3-1.6.4-.4 1-.4 1.6-.4.3 0 .6 0 1.1.2h2.3c1.1-.1 2.6-.2 4-.5 8.1-1.8 15-4 21-7 3-1.5 6.2-2.5 10.3-3.1 4.4-.7 8.7.1 13.6 2.6 2.5 1.3 4.5 3.4 5.9 6.4l.6 1.3 1.2 3.9.4 1.4-.1.1c-.8 1.1-2 1.5-3 1.9l-1.7.7-6.5 3.6-1.9 1.1c-.5.3-1 .5-1.5.3-.4-.3-.5-.9-.5-1.5v-1.2l-.2-2c-.5-4.4-2.8-8.1-6.4-10.2-3.5-2-7.6-2.3-11.6-.7a19 19 0 00-12 15.2c-.3 2-.7 4.3-.2 6.5.2.7 0 1.1-.2 1.4a1 1 0 01-.8.3l-.6-.1a19.2 19.2 0 01-8.9-5.4zm2.3 24a29 29 0 013.8-9.7c1.2-2 2.7-3.8 4-5.5.4-.5.8-.6 1.2-.6.3 0 .7.1 1.1.7l.7 1.1.6 1a21 21 0 0025.2 8.4c2.3-.8 4.4-2 6.6-3.2l.6-.4 5-2.8c2-1.3 4.2-2.6 6.4-3.7a42 42 0 017-2.8c9-2.9 18.5.4 24.8 8.4a48 48 0 013.9 6.2l.2.4c.9 1.6.7 2.6-.7 3.6l-4.7 3.8a409 409 0 01-14 11 45.4 45.4 0 01-16.5 7.7l-1-.1c-.6-.1-1-.4-1.1-.9-.2-.5 0-1 .5-1.5 2.5-2.7 2.7-4.8 1-7.9a7.9 7.9 0 00-4.8-4.1l-8.2-2.4-10.9-3.2a60 60 0 00-19-2c-.7 0-1.5 0-2.3.2l-7 .9c-1.2.1-1.9 0-2.2-.3-.5-.5-.4-1.3-.2-2.3zm-44.4 33l8.4-6.8 9.6-7.8c6.4-5 13.9-9 22.3-12a52 52 0 0116.2-3c7.3 0 12.8.6 18.3 2.2l13.2 3.9 5.3 1.5.2.1c.3 0 .6.2.8.3l.7.5.2.2.5.5-.7.2h-.2c-.2.2-.5.3-.8.2l-15.8-2.4a75.7 75.7 0 00-26.8.2 58.2 58.2 0 00-24.4 10.8c-4.2 3.2-8.2 6.7-12.1 10l-3.2 2.8-5.1 4.5-6.1 5.3a58 58 0 01-6.4 4.6c-1.1.7-1.8 1-2.3 1-.7 0-1.3-.4-2.4-1.5l-.1-.1-2.5-2.4c-.5-.5-.8-1-.8-1.4 0-.5.4-.8 1.1-1.3l3.9-3 9-7zm-62.7 19l4.4-1 4.8-1.3 6.4-1.7 22-6.1c3-.8 5.8-1.9 8.6-3l4.5-1.5 2.2-1c.4-.2.8 0 1 .3.3.3.2.8-.2 1-1.4 1-4.8 3.5-6.5 4.5l-.6.3-.7.3-.6.2c-.2.1-.8.5-.3 1.3.2.4.5.8.8 1 .4.5.8 1 .7 1.5-.1.5-.7.8-1.5 1l-6.5 2.3-1.2.4c-10 3.4-20.5 5.8-30.6 8.2l-5 1.2H86a9.3 9.3 0 01-1 .2c-.3 0-.6 0-.9-.3-.3-.2-.5-.6-.6-1l-.6-4.3c-.2-1.5.2-2 1.7-2.4zm5.5 82.2l-2.6.4-1.4.2c-.3 0-.6 0-.8-.2-.7-.5-.9-1.6-1.3-4.6a2280 2280 0 00-5.3-36.3l-3.4-23.4-2-12.9c0-1-.2-2-.4-3.1l-.8-6c-.3-2 0-2.5 2-2.8l1.1-.1a5 5 0 001.7-.3c1-.2 1.9-.3 2.5 0 .6.5.8 1.3 1 2.8a7329.4 7329.4 0 005.5 40.2l3 22.5 2.3 16.2.5 3.4.1 1c0 2-.2 2.8-1.8 3zm79.3-35.4a202 202 0 01-68.1 24.1l-1.8.4-5.2.8a2 2 0 01-.4 0c-.7 0-1.2-.4-1.4-1.1l-.6-3.5-.1-.7c0-2.5.3-3 2.4-3.4l4.5-.6 9.9-1.6c20.3-4 38.2-10.3 54.6-19.4l.7-.5c1.9-1 2-1 4.2 1.1a40.5 40.5 0 001.8 1.8c.5.5.8 1 .7 1.4 0 .5-.4.8-1.2 1.3zm8.4-.1h-.6l-.2.1-.5-.2c-.5-.2-1-.3-1.4-.7l-9-8.6c-.5-.5-.5-1-.4-1.1 0-.4.4-.7 1-.8a31.8 31.8 0 0016.1-10 127 127 0 0011.3-14.2l.4-.5 2.6-3.7c3.1-4.3 6.3-8.7 9.6-13a47.7 47.7 0 017.6-7.2c.4 0 .7.5.9 1l.4 1.2c.5 1.3 1 2.8 1.7 4 .6 1.3.5 2.2-.4 3a47 47 0 00-7.9 10l-6 10.6-2.2 3.9-.9 1.5c-2.8 5-5.7 10.2-9.3 14.8-1.8 2.3-4 4.5-5.8 6.3a13.5 13.5 0 01-7 3.6zm12 9.4l-.2-.1-.4-.2c-.3 0-.5-.2-.7-.3l-1.6-1-.4-.2-6-4.2c-.7-.4-1-1-.9-1.4 0-.3.3-.7 1-1 4.8-1.9 8.2-5.7 10.9-9.2a130 130 0 0010-15.7l.2-.4c1-1.7 2-3.3 2.8-5l6.4-11.1a41.6 41.6 0 018.4-9.8c.3-.2.9 0 1.1.3.2.2.5.8.4 1.2-.1.4-.4.7-.6 1l-.2.3-1.5 2-2.6 3.8c-3.6 5.2-6 11.4-7.6 20a72.6 72.6 0 01-5.7 18.8 24.7 24.7 0 01-11.5 11.5l-1.4.7zm13 7.4c-.4 0-.9-.1-1.3-.4l-5.2-3-3.5-1.9c-.5-.2-.6-.6-.6-.8 0-.3.2-.6.5-.9l1.4-.8.8-.5c3.6-2.2 6.4-5 8-8.5 1-1.8 1.9-3.8 2.7-5.6l1.4-3c.2-.3.5-.7.9-.7s.7.5.8.7c1 2.3 2.3 5.3 4.3 8 .4.4.5 1 .6 1.4v.7a20.4 20.4 0 01-9 14.9 3 3 0 01-1.8.5zm15 6.8a571.2 571.2 0 01-10.9-4.5c-.5-.2-.8-.6-.8-1 0-.2 0-.6.4-1l.8-.8c3.9-3.2 6.4-7.2 7.6-11.8.3-1 .4-1.5.9-1.6.4-.2.9 0 1.8.6l1 .6c1.3.8 2.6 1.6 4 2.1 1.3.6 3 1.6 2.5 4-.1 4.5-1.9 8.4-5.8 12.6-.6.6-1.1.8-1.6.8zm23.7-16.2v.6l-.3 1.4a65.6 65.6 0 00-3.6 19.4c0 .6-.2 1.2-.7 1.5l-.6.2c-.3 0-.5 0-.8-.2l-13.3-4.8c-.5-.2-1-.5-1.2-1-.2-.5.1-1 .7-1.7l.6-.8.7-.8a19 19 0 003.7-9l.2-1 .2-1.4c.1-1.2.8-1.8 2-1.8h2.7v.4l1.4-.3 6-1 1.3-.2h1.1v.5zm9.2-13.8A19.5 19.5 0 01232 404c-9.3 0-18.2-6-21-14.9-.5-1.4-.7-2.8-1-4.3l-.3-2c.3-8.7 6-16 14.1-18.3 9.5-2.6 19 .8 24.6 8.8a19.5 19.5 0 012.3 18.2zm19.7-12.8a34 34 0 01-13.2-5.7l-7.8-5a53.2 53.2 0 00-14.3-5.8 22.5 22.5 0 00-20.6 5.1c-.2.1-.7.4-1 .1-.3-.2-.4-.7-.3-1l.8-2.4c1.8-3.8 4.2-7.7 7.3-11.8 1-1.2 2.1-2.2 4.4-1.5a19 19 0 0017.4-2.2c1.6-1 3.1-1.3 5.3-1a20 20 0 019 3.5 135 135 0 008.9 5.9c4.7 2.9 10 4.9 15.8 5.8 3.7.6 7.6.5 11.9-.4l13.3-2.9a2730.6 2730.6 0 0146.2-9.6l5.6-1.2 8-1.6c.7-.1 1.2 0 1.6.3.3.2.5.7.6 1.2.3 4.3-.6 7.5-2.8 10a24 24 0 01-12.5 8.2c-8.4 2-17.4 4.4-26.5 6.9a215 215 0 01-41.9 6.2l-4.6.3-3.6-.5c-2.4-.3-4.7-.5-7-1zm-13.7 38.8c2.7-3.3 4.2-7.2 5.4-10.6 1.6-4.4 3.8-10 7.3-15.1 2.2-3.1 4.8-5.8 7.8-8 2-1.5 3.8-2.1 5.8-2h4.5l.4.2h.6l-.3.5-.2.4c-.2.3-.3.6-.6.8a40.2 40.2 0 01-3 2.6A34.7 34.7 0 00276 398a180.1 180.1 0 00-4.3 10.5c-1.2 2.5-2.3 5.2-3.7 7.7a17 17 0 01-3 3.7c-.3.4-1 .6-1.4.8l-.5.2h-.2c-.7 0-1.3-.2-1.9-.3l-3.7-.9c-.5-.1-.9-.4-1-.8-.2-.3 0-.8.4-1.3zM-3.6 207a112.5 112.5 0 0011.3-.2l7.7-.4 31.3-1.2c12.4-.3 24.8-1.1 37-2.2a292.7 292.7 0 00101.7-27.2 265 265 0 0085.4-63.9A221.6 221.6 0 00306 57.5a176 176 0 0013.5-46.6c.4-2.6.6-5.2.8-7.8l.2-1.8c0-1 0-1.1-1.3-1.3-1.6-.1-2.8.4-4 1.8a95 95 0 01-7 8 45 45 0 01-16.1 10.6c-5 1.8-10 1.5-14.8-1-.3-.1-.5-.6-.5-.9.1-.3.4-.7.7-.8 3.8-1 7-2.5 10-4.4a82 82 0 0012.7-10.7v-.2c.4-.3.8-.7 1-1.1.2-.2.2-.5.3-.8l-.2-.2c-.3 0-.7-.2-.8-.1-.7.3-1.4.8-2.2 1.5a80.7 80.7 0 01-10.3 8.9 34.6 34.6 0 01-12.7 5.7c-2 .4-4 .8-6.1 0l-7.4-2.7-.6-.7-.2-.2-.3-.4.6-.3.5-.2A42.1 42.1 0 00279.2.3s-.1-.2-.3-.2c-1-.2-1.7 0-2.3.5L273.8 3a34.8 34.8 0 01-14.9 7.6c-1.3.3-3.2.5-5-.2l-7.4-2.7c-.2 0-.7-.3-.8-.6v-.3c.2-.4.4-.7.7-.9l2.8-1.7 4.3-2.9h.2c.3-.3.7-.5.7-.8V.3c-.2-.2-1-.3-1.7-.2l-1.5.8-.6.3-1.8 1.1-4 2.3-2.1.8-1 .3h-.2l-.2-.2c-.6-.9-.3-1.7 0-2.4l.3-1.1.1-.7V.7c0-.2-.3-.5-.5-.6-.6 0-1 .2-1.3.8l-.5 2L239 4a169.8 169.8 0 01-32.2 62.3 139.1 139.1 0 01-57.2 42c-11.6 4.5-24.5 8-40.5 11a455.4 455.4 0 01-37.7 5.5c-7.3.7-14.8 1.2-22 1.7h-.7a376.8 376.8 0 01-17 .9c-8.9.5-20.5 1.2-32.4 1.2h-2.2c-.6 0-1 .4-1 1v38.1c0 .4 0 1.4.2 1.6.3 0 .4 0 .8-.8l.3-.6.9-1.1c.6-1 1.3-1.8 2-2.6 1.8-2 4.3-2.8 7.2-2.5a22 22 0 019.7 3.7c.6.3 1.2.8 1.4 1.3.2.7.3 1.6 0 2.3-.3.6-1.3 1-1.9 1l-3.4-1.1a38 38 0 01-2-.8c-1-.5-2.1-1-3.2-1.3-3-.8-6.2.7-7.5 3.6a7 7 0 00-.5 5 17.1 17.1 0 0011.4 11.7c2.5.4 4.3-.2 5.6-2l1.2-2 .5-.7A40.5 40.5 0 0021 179a14 14 0 0113.5-6.2c2.3.2 4.1.7 5.6 1.3 2.3 1 4.6 2.3 6.8 3.5l2 1.1 3 1.7 5.5 2.9c1.4.7 3 1.2 5 1.5a4 4 0 003.3-.7c.8-.7 1.3-1.9 1.3-3.3a10 10 0 00-1.2-4.6 27.4 27.4 0 00-8-9.6 24 24 0 00-15.1-5.7h-1.5l-.8-.1c-1.6 0-3-.8-4.3-2.2-1.1-1.2-1.6-2.7-1.2-3.9.4-1.1 1.5-2 3-2.2a15 15 0 015.5 0c11 2 20 7.5 26.3 16.6 2.6 3.8 3.8 8 3.5 12.7-.2 3.4-1.7 6.3-4.1 8.1a10.7 10.7 0 01-8.9 1.7 26 26 0 01-8.9-3.9l-3-2.2-3.6-2.6-.4-.3c-1.7-1.1-3.4-2.3-5.3-3-4.7-2-9.1-1.2-13 2.4-1 .8-1.7 1.8-2.4 2.8l-.4.5c-.8 1-1.6 2.3-2.3 3.5a8.9 8.9 0 01-8.2 4.2 19 19 0 01-15-6.7l-.3-.4-.9-1h-.2l-.2.2V204c0 1.6 0 2.6.3 3zm11.7-56.6a4.6 4.6 0 01-4.5-4.5c0-1 .4-2 1.2-2.8.8-.7 1.9-1.1 3.1-1a4 4 0 013.1 1.3 4 4 0 011.1 3.1 4 4 0 01-4 3.9zm18.6-2.5a3 3 0 01-1.6.4 4 4 0 01-1.8-.4l-.3-.2c-1.8-1.2-2.6-3.4-2-5 .7-1.6 2.3-2.5 3.8-2.2 2.1.5 3.6 2.4 3.5 4.5 0 1.3-.6 2.3-1.6 3zm20.3-2.7c-.6.6-1.4.9-2.2.9h-.2c-2-.2-3.4-2-3.4-4.2 0-1 .6-2.2 1.4-3a3 3 0 012.3-.8c1.9.2 3.4 2.1 3.4 4.2a4 4 0 01-1.3 3zm18.4-2.8c0 2-1.6 3.6-3.8 3.6-1.1 0-2-.4-2.6-1-.6-.7-1-1.6-.9-2.6a4 4 0 013.9-3.6c1 0 1.8.4 2.4 1 .7.7 1 1.7 1 2.6zM215.6 122a4 4 0 01-.8-3.5c.2-.8.4-1.6.8-2.2 2.5-3 5-5 7.8-6.2a4 4 0 014.8 1.3c1.2 1.4 1.3 3 .3 4.7-.5 1-1 1.7-1.7 2.4a54 54 0 01-4.9 4 6 6 0 01-1.8.9l-.4.1h-.4c-1.6 0-2.9-.5-3.7-1.5zm-6.6-8.9c-2.3 0-3.8-1.4-4-3.5 0-1.2.3-2.4.7-3.3a14 14 0 015.3-5 4 4 0 014.1 0c1.4.9 2.2 2.4 2.2 4 0 3.2-5 7.8-8.3 7.8zm22.8-36.9l3.8-4.9c2.3-3.1 4.8-6.3 7.1-9.6a161.3 161.3 0 0019-34.6c.5-.2 1 0 2 .4l4.7 1.8c.5.2.8.5 1 .9 0 .4 0 .8-.2 1.3l-1.6 3.8c-1 2.4-2 5-3.2 7.3-4.6 8.9-9.6 17.2-15 24.7-2.6 3.8-5.4 7.5-8.1 11.1l-1.1 1.5-2.5 2.9h-.1c-.5.6-1 1-1.7 1.5-.9.5-1.7.8-2.6.8a4 4 0 01-1.8-.4c-1.7-1-1.6-2.6-1.6-3.9-.1-1.8 1-3.3 2-4.6zm42.4-42.1c.4-1 .6-1.6 1.1-1.8.5-.3 1.1 0 2.1.4l4.3 2c1.4.6 1.6 1.1 1 2.6l-1 2.3a224.8 224.8 0 01-32.6 54.5l-.4.5c-2.6 3.3-5.4 6.7-8.3 9.9a22.7 22.7 0 01-4 3.4c-.7.4-1.4.6-2 .8a5 5 0 00-.4 0h-.2c-2.4 0-3.8-1.2-3.9-3.4 0-2 1-3.6 2-4.8l3.4-3.8 3-3.4a212.7 212.7 0 0035.9-59.2zm-43.2 57c-.7 3.3-2.7 6-6.3 8.2a3 3 0 01-1.3.3h-.3c-2.8 0-3.7-1.7-3.9-3v-2.3c.4-2 4.2-6.8 6.2-7.5 1.5-.6 3.2-.3 4.4.7 1 .9 1.5 2.2 1.2 3.6zM298.8 43c-.8 2.3-1.7 5-2.8 7.7a204.5 204.5 0 01-65.4 85c-1.3 1-2.3 1.7-3.4 2.2-.9.4-1.8.6-2.5.8l-.5.1h-.3c-1.9 0-3.4-.7-4.1-2-.6-1.1-.5-2.4.3-3.6 1-1.4 2.1-2.5 3.9-3.8a169.4 169.4 0 0041.7-42.7A197.2 197.2 0 00289.1 43l.2-.6.4-1c.7-1.8 1-2 2.7-1.7l3.8.6 1.2.2c.7.1 1.2.4 1.5.8.2.4.2 1 0 1.7zm15-16.1l-.4 1.8c-.5 2.2-.7 3.1-1.4 3.5l-.6.1a6 6 0 01-2.3-.7l-2.3-.8-1.1-.6-.4-.3-.5-.3.4-.3.4-.4c.3-.2.5-.6.9-.7 3-1.3 5.8-4 7.3-5.5.3-.3.8 0 .7.4l-.7 3.8zm-23-4a37 37 0 008.4-3.7c5-3 9.4-6.5 13.1-10.7l1.3-1.5 1.8-2 .7-.5a1 1 0 011.4.7v.6l-.4 3-1.4 8a7 7 0 01-1.3 2.6 23.5 23.5 0 01-14 8.8 2 2 0 01-.6-.2l-8.3-3.1-.7-.3c-.3-.1-.6-.6-.6-.9 0-.3.3-.7.7-.8zm-52.3-10.3c.3-1 .6-2 1-2.7.4-1.3 1.4-1.7 3-1.4h.4l1.6.6 63.9 24.3.3.1 1.4.7c.3.3.8 1 .7 1.5a68 68 0 01-1.4 5.5c0 .5-.8.8-1.3.8h-.2a46 46 0 01-4-1.4l-8.5-3.2A6270.2 6270.2 0 01252.9 21l-7.4-3-5-1.8h-.1c-2.6-1-2.7-1.1-2-3.6zm-8.6 43l.1-.5c.1-.5.3-1.3.6-1.9a55 55 0 012.7-4.6 165 165 0 0013.6-24.5l.3-.6.3-.6c.2-.6.6-1 1-1.2.4-.1.8 0 1.4.2l2.4 1 2.5 1c1.4.6 1.8 1.4 1.2 2.7-1 2.2-1.9 4.4-3 6.5-4.1 7.6-8.7 15.7-14.3 23.4a8.4 8.4 0 01-3.9 3.3l-1.5.2c-.6 0-1.1 0-1.6-.4a3.4 3.4 0 01-1.7-2.3v-.9l-.1-.7v-.1zm-9.6 13c.4-3 2-5.3 4.4-7a4 4 0 014.1-.2c1.4.7 2.3 2.2 2.3 3.8 0 2.8-2.6 6.7-5.2 7.7a5 5 0 01-1.7.3 4 4 0 01-2.5-1 4 4 0 01-1.4-3.7zm-11.3 14l.1-.3c.2-.6.3-1.1.6-1.5l4.4-5.2c.4-.3 1-.7 1.7-.9a4 4 0 013.7.6c1.2.8 1.8 2.3 1.8 4v.5l-.7 1.6a18.6 18.6 0 01-5.3 5.8c-.7.5-1.4.7-2.2.7a5 5 0 01-2.6-.8c-1.3-.8-2-2.8-1.5-4.6zM196.2 94c1.4-1.5 3-2.8 4.4-4l1-.7c.3-.4.8-.4 1.2-.5h.2c1.4 0 2.7.6 3.6 1.6.9 1 1.2 2.2 1 3.3 0 .9-.4 1.8-.9 2.5a13 13 0 01-5.1 4.5c-.7.3-1.4.4-2.1.4-1.3 0-2.5-.5-3.3-1.4-1.2-1.5-1.6-4 0-5.7zm-25 6.4c.1-.5.7-.9 1.5-1.3l1.3-.9c1-.7 2-1.5 3.4-1.6h.3v.2a96.3 96.3 0 002.8 4.2 57303.3 57303.3 0 0131.9 55.6l.5 1v.2l-.3.4-.4.7-1.6 1-1.5 1c-.9.5-1.5.8-2 .8-.7 0-1.1-.7-2-2.2l-.7-1a550.4 550.4 0 01-23.4-40 270.8 270.8 0 00-9.1-16.1c-.6-1-.9-1.5-.7-2zm-87.4 25c.4-.6 1.2-.8 3.3-1a395 395 0 0040.8-7.6c14.7-3.7 27.2-8.3 38.3-14l.2-.2.7-.4c1.6-.7 2-.7 3 1l1.9 3c1.9 3 3.8 6.3 5.5 9.6 7.3 14.1 15.9 29 26.3 45.2l.6.9c.2.3.3.7.2 1 0 .4-.3.7-.7 1l-1.7 1-.5.3a284.8 284.8 0 01-99.6 33.8l-1.5.2-.1-.2c-.1 0-.2 0-.3-.2-.3-.2-.7-.5-.8-1l-.9-3v-.4l-14.3-64.7-.2-1-.2-1.3c-.3-1-.4-1.6 0-2zm-11.3 3c-.2-.9-.2-1.4 0-1.8.3-.4.9-.5 1.8-.7h.5l3.3-.5c3-.3 3.2-.2 3.8 2.6l2 9.3 1.1 5L97 196c.3 1.7.5 2.5.1 3-.4.6-1.2.7-2.8.9h-.7l-1.8.3-1.5.2H89c-1.4 0-1.8-.3-2.2-2l-.7-2.8c-1.2-4.5-2.4-9.2-3.3-13.9l-6.3-31.3-3-16.4-1-5.7z"/><path d="M331.2.1c-.7 0-1.2.5-1.4 1.2l-.8 3.8a281.2 281.2 0 01-10.8 42.5 159.4 159.4 0 01-22.3 43.1l-2 3.1a247.6 247.6 0 01-47.9 52.7 280.9 280.9 0 01-148.7 62.2 413.3 413.3 0 01-62.2 5.9l-8.6.4H-.3a15 15 0 00-3.1.3l-.4.7c0 .3.3.7.4.8l3.1.2h2l23.3-.4a1261.7 1261.7 0 0037-1.7h1.7l7.8-.8c9.1-1 16.2-2 22.9-2.8 15.3-2 27.8-4.1 39.2-6.9 36-8.7 69-23.6 98.2-44.4a255.5 255.5 0 0078.4-89l.2-.3a220.1 220.1 0 0022-69.6c0-.3 0-.6-.2-.7-.2-.2-.5-.3-1-.3zM-3 122.6h1.3l9-.3 18-.6a493.2 493.2 0 0079-8.7c16-3 28-6.4 39-10.6 16-6.1 30-14.6 41.4-25A167.4 167.4 0 00231.6.7l-.1-.5c-.1-.1-.3-.2-.6-.1a2 2 0 00-1.2.5c-.3.5-.5 1.2-.6 1.8l-.2.5a170.5 170.5 0 01-31 57.8A133.6 133.6 0 01149.6 98c-11.7 5.3-24.6 9-40.8 12.5a386 386 0 01-33.3 5.5c-7.9 1-15.8 1.7-23.4 2.4-5 .5-9.8.8-14.6 1a2479.9 2479.9 0 01-40.8 1.7h-.5v.6c0 .3.4.7.8 1zm348.8 148.1h.6l.4-.2c0-.4-.2-.7-.3-.8l-4.2-2.4-.7.1c-.1.2-.2.7 0 .8.8 1.4 2.2 2.2 4.2 2.5zm1.7 86h-1.7l-7 1.2-12.5 2.5-28 5.5a95 95 0 01-11.6 1.5c-8.7.6-16.5-1.7-23.4-6.6a65.2 65.2 0 00-17-8.3l-1-.3c-.7-.2-1.7 0-2.3 0-.6 0-.7 1-.2 1.1l.6.1h.3c3 .4 6 1.4 8.9 2.9l9.8 5.6 2.9 1.7 3 1.8a36 36 0 0018.5 3.6c2.3.2 5.5-.4 8.9-1.1l2.9-.6 30.4-5.9 5.9-1.1 10.4-2.3.7-.1c.6-.1 1.3-.4 1.9-.7v-.3l-.2-.2h-.2zm15.9-3.4l-1-.1a262.7 262.7 0 00-10.3 2.2c-.3.1-.6.5-.6.7l.4.4.2.2 2-.5 9-2 .3-.1c.2-.2.2-.5.2-.7l-.1-.1h-.1zm-108.7-66.5h-1.4c-3.6.4-6.8 2.3-8.9 5.2a12 12 0 006 18.5 13 13 0 0012.8-2.6c3.3-2.8 4.6-6.3 4.1-10.4-.8-6.3-6-10.7-12.6-10.7zm9.5 16.8a10.6 10.6 0 01-9.3 5.5c-5.8 0-10.5-4-10.7-9.5a10.3 10.3 0 019.5-10.7c4.7-.4 9 2 10.8 6 1.2 3 1.1 6-.3 8.7z"/><path d="M269 307l.2-.3a6 6 0 001.6-1.6 11 11 0 001.4-5.7c0-3.1-.5-5.5-1.7-7.6a10.4 10.4 0 00-4-4.5h-.9v.8l.8.8.4.4a13 13 0 011.7 16.6l-.2.2c0 .5.1.6.2.7l.5.1zm-25 84.4c3.1-4.8 3.3-9.9.6-14.8a15 15 0 00-13.5-8c-5.6 0-10 2.5-13.2 7a14 14 0 00-2.1 11c.8 4 3.1 7.3 6.5 9.5a16 16 0 0021.8-4.7zm-3.7 1.7a13 13 0 01-8.7 3.6h-.3c-6.8 0-12-3.7-13.6-9.8a12 12 0 012.7-11.6 14 14 0 0119.7-1.6 12.9 12.9 0 01.2 19.4zm-17.8-52c1.8 3.4 5 5.2 9.6 5.5 4.5-.3 7.9-2 10.3-5 2.4-3 3.1-7 1.8-10.4-1.3-3.5-4.4-6-8.3-6.7-.7-.2-1.4-.2-2.2-.2-4.2 0-8.4 2.1-10.6 5.7a10.4 10.4 0 00-.6 11.1zm1.9-9.2c2-3.6 5.2-5.5 9.5-5.7 4 .3 6.6 1.9 8 4.9 1.5 3 1.1 6-1 9A10.7 10.7 0 01229 344a8.6 8.6 0 01-5.2-5c-1-2.3-.7-4.9.6-7.1zM29.5 402.8c0 .7.5 1.2 1.3 1.2.8.1 1.6-.4 1.6-1.1.1-.6-.4-1.2-1-1.3H31c-.4 0-.8 0-1 .3-.3.2-.5.5-.5 1zm-10.8-24.1c-.3.3-.3.6-.3 1 0 .7.8 1.3 1.6 1.2.7 0 1.3-.8 1.3-1.5-.1-.7-.7-1.3-1.5-1.3h-.1c-.4 0-.8.3-1 .6zm-5.9-24.2c0 .2 0 .5.2.7.2.4.7.6 1.1.7.7 0 1.3-.5 1.4-1 0-.4 0-.6-.2-.8-.2-.3-.6-.4-1-.5h-.2c-.6 0-1.2.3-1.3.9zm130.4-230.3c-11.2 3-22.4 6.2-33.5 9.3-4 1.2-4 1.2-3 5l.6 2.3.7 3c.3 1 1 1.3 2.3 1.3l.5-.2 2-.5 42.5-12.6 2.2-.7 4-1.1c.7-.3 1.2-.6 1.4-1 .1-.3 0-.8-.2-1.5l-2.2-5.6-.4-1c-.3-.6-.7-1-1.4-1h-.5l-2 .6-13 3.7zm14.3-2.1l.2.1.3.2 1 .8.4 1.1.2.3.3 1c.5 1.2.8 1.9.5 2.4-.2.5-.8.7-2 1l-1.1.3-31.5 9.3-11.7 3.5-2.5.7h-.7c-.4 0-.6 0-.9-.2-.3-.2-.6-.6-.7-1.2l-.6-2.6c-.7-2.9-.5-3 2.6-3.8l1.7-.5 30.2-8.5 11.5-3.2 1.6-.4 1.2-.3zm-36.3 47.1c-1 .3-2 .6-2.8 1.2-.4.2-.8 1-.7 1.3.5 2.3 1.1 4.7 2 7.5.4 1.3 1.2 1.7 2.6 1.5l.9-.3.5-.1 16.7-5L172 166l.4-.1 1.5-.6.7-.8.1-.2v-.4l-.2-.6-2.8-7c-.2-.5-.6-.7-1.1-.7a137 137 0 00-5.6 1.4l-43.8 12.2zm47.4-11.3c1-.2 1.9.3 2.3 1.4l.4 1 .4 1c.4 1 .6 1.7.4 2.3-.3.5-1 .8-2.2 1.1l-28.4 8.4-3.6 1L125 178l-.3.1-1.8.5h-.3c-.8 0-1.3-.4-1.5-1.1l-.7-3.2-.4-1.7.1-.2.2-.2c.1-.2.4-.6.7-.7a6 6 0 011.4-.5l.3-.1 44.1-12.4 1.8-.5zm-47.3.3a8.4 8.4 0 009.3 2c3.4-1.3 5.5-4 5.6-7.3 0-3-1.6-5.5-4.3-6.6-1-.5-2.2-.7-3.3-.7a9.3 9.3 0 00-8 4.4 7 7 0 00.7 8.2zm1.1-7.5c1.2-1.8 3.1-3 5.6-3.3 2.9 0 5.3 1.5 6.1 3.7.7 2-.1 4.6-2 6.1a7.4 7.4 0 01-4.6 1.8 8 8 0 01-2.5-.5 5.3 5.3 0 01-3.2-3.2c-.5-1.5-.3-3.1.6-4.6zm22.3-.7c1.3 2.6 3.6 4 6.8 4h.1c3.7-.1 7-2.3 8.2-5.7 1.1-3.2 0-6.4-2.9-8.2a8 8 0 00-4-1 9 9 0 00-6.6 2.7c-2.1 2.3-2.8 5.7-1.6 8.1zm2-5.4a7.1 7.1 0 015.9-3.8c2.5 0 4.2 1 5.2 2.8 1 1.9.7 3.9-.7 5.7a6.8 6.8 0 01-6.6 2.8 5 5 0 01-4-2.7 5 5 0 01.2-4.8zM256.8 307c3.5-.6 6.5-4.5 6.5-8.4-.2-2.1-1.1-5-4.4-6.4-3-1.4-6-1-8.7 1-.2 0-.3.2-.3.2l.1 1.1.5.1 1.2-.4 1.4-.6 1.8-.2c2.4 0 4.6 1.3 5.6 3.4 1.3 2.8.3 5.6-2.5 7.5l-.7.5h-.2l-.5.3-.5.3c-.3.2-.6.4-.6.7v.5c.3.2.9.4 1.3.3zm-8.7-10.2c0-.2-.3-.5-.3-.5-.4 0-1 .3-1.1.5a5 5 0 00-.5 1.7c0 3.4 2 6.7 4.5 7.3.3 0 1-.1 1.1-.4v-1c-2.9-1.8-4-4.2-3.4-7.3l-.3-.3z"/></g><defs><clipPath id="quetzalcoatl_svg__a"><path fill="#fff" d="M0 0h375.3v449.3H0z" transform="translate(-4)"/></clipPath></defs></svg>