<svg xmlns="http://www.w3.org/2000/svg" fill="none" viewBox="0 0 100 100" class="card_badge__4ZB8h"><defs/><path fill="#e9c46a" d="M65 96.2l-4-2.8a3 3 0 00-4.3.9l-2.6 4a3 3 0 01-5 .2l-2.8-3.9A3 3 0 0042 94l-3.8 3a3 3 0 01-4.8-1.5L32 91a3 3 0 00-4-2l-4.4 1.7a3 3 0 01-4-3v-4.8a3 3 0 00-3-3.2h-4.8a3 3 0 01-2.9-4l1.7-4.6a3 3 0 00-2-4l-4.5-1.4a3 3 0 01-1.4-4.9l3-3.7a3 3 0 00-.5-4.3l-3.8-3a3 3 0 01.2-5l4.1-2.5a3 3 0 001-4.3l-2.8-4a3 3 0 011.9-4.6l4.7-1.1a3 3 0 002.2-3.7l-1.2-4.7a3 3 0 013.2-3.8l4.8.5a3 3 0 003.3-2.8l.3-4.8a3 3 0 014.3-2.5l4.4 2a3 3 0 004-1.5l2-4.4a3 3 0 014.8-1L46.1 5a3 3 0 004.3-.2l3.2-3.6a3 3 0 015 .7l2.1 4.3A3 3 0 0065 7.4l4-2.3a3 3 0 014.4 2.2l.7 4.8a3 3 0 003.6 2.6l4.7-.8a3 3 0 013.5 3.5l-1 4.8a3 3 0 002.6 3.6l4.7.7a3 3 0 012.2 4.6L92 35.2a3 3 0 001.3 4.2l4.2 2.3a3 3 0 01.6 5l-3.6 3.2a3 3 0 00-.2 4.3l3.3 3.6a3 3 0 01-1 4.9l-4.5 1.8a3 3 0 00-1.6 4l2 4.5a3 3 0 01-2.6 4.2l-4.8.3a3 3 0 00-2.8 3.3l.5 4.8a3 3 0 01-3.9 3.2l-4.6-1.3a3 3 0 00-3.7 2.2l-1.1 4.7a3 3 0 01-4.7 1.8z"/><path fill="#fff" d="M19.7 33.6l6.4 2.6-.5 1.2-5.1-2.1 4.4 3.7-.5 1.3-5.7-.4 5.2 2-.5 1.2-6.4-2.5.7-2 5.6.5-4.3-3.6.7-1.9zm8.6-5.9a3.5 3.5 0 01.6 5 3.5 3.5 0 01-5.1.7 3.6 3.6 0 01-.5-5.1c1.2-1.6 3.3-2 5-.6zm-3.7 4.7c1.2.9 2.5.7 3.4-.3.8-1.1.7-2.5-.5-3.4-1.1-1-2.5-.8-3.3.3-.9 1-.8 2.4.4 3.4zm8.1-10.2l-.6 1.1c-.5-.6-1.3-.7-2-.2-.6.5-.9 1.1-.5 1.6 1 1.2 3.4-2.2 5 0 .9 1.1.4 2.4-.8 3.3-1.2.9-2.5 1-3.5 0l.6-1.1c.6.7 1.4.8 2.2.2.7-.5 1-1 .6-1.6-1-1.3-3.4 2.2-5 0-.8-1-.4-2.4.7-3.2 1.2-1 2.5-.8 3.3 0zm6.1-3.6l-2 .9 2.4 5.2-1.1.5-2.4-5.2-2 1-.4-1.2 5-2.3.5 1.1zm9.5-.9c.2 1.3-.7 2.3-2 2.4l-1.7.3.4 2.6-1.2.1-1-6.8 3-.4a2 2 0 012.5 1.8zm-1.3.2c0-.6-.5-1-1.1-.9l-1.7.2.3 2L46 19c.7 0 1-.5 1-1.1zm10 1.8c-.3 2.2-2 3.4-4 3.2-2-.2-3.5-1.9-3.3-4 .3-2.2 2-3.4 4-3.2 2 .3 3.5 1.9 3.3 4zm-6-.7c-.1 1.5.7 2.6 2 2.8 1.4.1 2.5-.7 2.7-2.2.2-1.5-.7-2.6-2-2.7-1.4-.2-2.5.6-2.7 2.1zm13 2c-.5 1.3-1.7 1.7-3 1.2l-1.5-.6-1 2.4-1.1-.4 2.4-6.5 2.8 1.1c1.2.5 1.9 1.6 1.4 2.8zm-1.2-.4c.2-.6 0-1.1-.6-1.3l-1.6-.7-.7 1.9 1.5.6a1 1 0 001.4-.5zm4.9.2l-2.5 3.7c-.4.7-.4 1.4.3 2 .8.4 1.4.2 1.9-.5l2.5-3.7 1 .7-2.5 3.7c-.9 1.4-2.2 1.6-3.5.7-1.3-1-1.6-2.3-.7-3.6l2.5-3.7 1 .7zM72 32l-1 .8-3-3.3 5-4.7.8 1-4.1 3.8 2.2 2.4zm3.1 4.5l-1.5-2.6-1.6.3-.7-1.2 7.3-1 .7 1-4.5 6-.7-1.3 1-1.2zm.8-1l1.8-2.3-2.9.5 1 1.8zm2.4 5.5l-.4-1.1-2.6.8-.4-1.3 6.6-2 .9 3.1c.4 1.4-.1 2.5-1.3 2.8-1 .3-1.9 0-2.4-1L76.6 45l-.5-1.4 2.2-2.7zm.7-1.4l.5 1.7c.2.7.7 1 1.2.8.5-.2.8-.6.6-1.3l-.5-1.8-1.8.6z"/><path fill="#FFFCF7" d="M37.1 53.9a6 6 0 01.3-3.3l.8-2 1.6-3.8c.2-.6.2-.6-.4-1l-2.2-1.1A7.2 7.2 0 0134 38v-1.4a1.7 1.7 0 012.3-1.4c.4.2.8.4 1 .7l1.7 1.5a12 12 0 003.9 2.7c.4.2.7.2 1-.1l.4-.2c1.3-.8 2.4-.7 3.6.4.1.1.3.4.5.4s.4-.3.5-.5l1.5-1.1c.8-.3 1.6-.4 2.3 0l1.8 1c.4.3 1 .4 1.5.5l2.2.3c1.2.3 1.7 1 1.5 2.3l-.6 3-.9 5.6v.3c0 .4 0 .5.4.4a8 8 0 001-.3 6 6 0 014-.2A8 8 0 0168 55c.4.6.6 1.2.7 1.9 0 .9-.4 1.5-1.3 1.6h-1.3c-.8-.2-1.6-.6-2.3-1a3 3 0 00-3-.4 9 9 0 00-3.9 3c-.9 1-2 1.8-3.4 2-2.2.3-4.3.2-6.3-.7A7.7 7.7 0 0144 59l-.5-.7c-.1-.2-.3-.6-.6-.1h-.5a8.7 8.7 0 01-3.8-1.7A4.3 4.3 0 0137 54zm5.7 3.6v-.1l-.6-.7c-.2-.3-.1-.5.2-.5.2 0 .4 0 .5.2.3.1.5.3.6.5l1.4 1.8a7 7 0 003.6 2.4c1.4.4 2.8.5 4.2.4a5 5 0 003.7-1.8l1-1a7 7 0 014.8-2.6c.5 0 .9 0 1.3.3l2 1c.5.3 1 .5 1.6.5.8 0 1.1-.5 1-1.2l-.5-1a6.5 6.5 0 00-8.4-2.7l-1 .3c-.5.2-.7 0-.7-.5v-1.2l1.3-7.7.2-1c0-.8-.1-1.2-1-1.4a10 10 0 00-1.7-.3c-1-.1-2 .2-2.6 1.2l-1.4 2.2a41.1 41.1 0 01-5.2 7.7c-.3.7-.2 1 .4 1.2a3 3 0 002.3.3c1-.3 2-.8 2.8-1.7l1.6-2c.6-.7.9-1.5 1-2.4l.2-.4.3-.2c.1.1.3.2.3.4l-.1.7a9.7 9.7 0 01-2.4 4c-1 1-2.2 1.9-3.7 2.3-.9.2-1.7 0-2.6-.3a2 2 0 01-1-1c0-.4-.2-.5-.5-.4l-.4.1c-1.3.2-2-.1-2.7-1.3l-.1-.1c-.1-.3-.3-.3-.6-.2l-.4.1c-.8.2-1.5-.2-1.8-1-.2-.6-.2-1.2.1-1.8l1.2-2a8 8 0 001.7-3.3l.3-1.5c.2-.8.1-.9-.6-1.2a9.9 9.9 0 01-3.6-2.4l-1.5-1.5-1-.7c-.8-.5-1.7 0-1.7 1 0 .4 0 1 .2 1.3a8 8 0 006.3 5.3h.3c.2.1.3.3.3.4l-.3.3h-.2c-.4 0-.6.2-.6.5-.2 1-.7 2-1.1 3l-1 2a7 7 0 00-.8 3c0 1.3.5 2.5 1.8 3.3 1 .6 2.2 1 3.3 1.4zm2.6-5.3c.6-.1 1.1-.4 1.5-1l.4-.5a36 36 0 003.6-5.2l1.2-2a6 6 0 012-2.5c.2-.1.2-.2 0-.4-.6-.5-1.3-.9-2-1H51a3 3 0 00-2 1.5l-2.1 4c-.8 1.5-1.7 2.9-3 4a2 2 0 00-.7 1.3c-.3 1 .3 1.8 1.3 1.8h1zm-4-1.5c.5-.1.9-.2 1-.7.4-.8 1-1.5 1.6-2.1.4-.4.8-.8 1-1.2l2.8-4.7v-.9a2.3 2.3 0 00-2.2-1.1 2 2 0 00-1.8 1.5l-.2 1c-.2 1.6-.9 3-2 4.4l-.8 1.4a5 5 0 00-.5 1.3c-.1.7.5 1.2 1.2 1z"/><path fill="#fff" d="M26.3 63.5L20 66.2l-.5-1.2 5.1-2.1-5.7.5-.6-1.3 4.4-3.8-5 2.2-.6-1.2 6.4-2.6.7 1.8-4.2 3.7 5.6-.5.7 1.8zm2.2 8.2a3.5 3.5 0 01-5-.5 3.5 3.5 0 01.4-5.1c1.7-1.4 3.9-1 5.1.5a3.5 3.5 0 01-.5 5.1zm-3.8-4.6a2.3 2.3 0 00-.4 3.3c.9 1.1 2.3 1.3 3.4.3 1.2-.9 1.3-2.3.4-3.4-.8-1-2.2-1.2-3.4-.2zm9.9 7.2l-1.2-.3c.4-.6.3-1.4-.4-2-.6-.5-1.3-.5-1.6 0-1 1.2 3 2.6 1.3 4.9-.8 1-2.1 1-3.3 0-1.2-.9-1.7-2.2-1-3.4l1.3.3c-.6.7-.5 1.6.3 2.2.7.5 1.3.6 1.7.1 1-1.3-3-2.7-1.4-4.9.8-1 2.2-1 3.3 0 1.2.9 1.5 2.1 1 3.1zm5.7 2.1l-1.9-.9-2.4 5.2-1.2-.6 2.4-5.1-1.9-1 .5-1 5 2.4-.5 1zM48 79c-.3 1.4-1.4 2-2.7 1.7l-1.6-.2-.5 2.5-1.2-.2 1-6.8 3 .5c1.3.2 2.2 1.2 2 2.5zm-1.3-.2c0-.6-.2-1-1-1.2l-1.5-.2-.4 2 1.7.2c.6.1 1.1-.2 1.2-.8zm9.3 1.1a3.5 3.5 0 01-3.4 3.8c-2 .2-3.7-1.1-4-3.3a3.5 3.5 0 013.4-3.9c2-.1 3.7 1.2 4 3.4zm-6 .4c0 1.5 1.1 2.4 2.5 2.3 1.4-.1 2.3-1.2 2.2-2.7-.2-1.4-1.2-2.3-2.6-2.2-1.3 0-2.3 1.1-2.1 2.6zm11.9-3.8c.4 1.3-.3 2.4-1.5 2.8l-1.6.5.8 2.5-1.2.4-2.2-6.5 2.8-1c1.3-.4 2.4 0 2.9 1.3zm-1.2.4c-.2-.5-.7-.8-1.4-.6l-1.5.6.6 1.8 1.5-.5c.7-.2 1-.7.8-1.3zm1.9-3.3l2.3 3.9c.5.7 1.1 1 1.9.5.7-.4.8-1.1.3-1.9L65 72.3l1-.6 2.4 3.8c.8 1.4.4 2.7-1 3.5-1.3.9-2.6.5-3.4-.8l-2.4-3.9 1.1-.7zM74 72.1l.7 1-3.3 3-4.7-5.1 1-.9 3.8 4.3L74 72zm3.3-5.1l-1.7 2.5 1 1.3-.8 1.1-4.1-6.2.8-1.1 7.2 1.7-.8 1.1-1.6-.3zm-1.2-.2l-2.8-.8 1.6 2.5 1.2-1.7zm2.6-5.4l-.4 1 2.6 1-.4 1.2-6.4-2.5 1.1-3c.5-1.3 1.6-1.8 2.8-1.3 1 .4 1.4 1.2 1.2 2.3l3.4-.9-.6 1.4-3.3.8zm-1.4.6l.7-1.7c.2-.6 0-1.1-.5-1.3-.5-.2-1 0-1.2.6l-.7 1.7 1.7.7z"/><path fill="#FFFCF7" d="M79.9 47.3l-1 2-2 1 2 1 1 2 1-2 2-1-2-1-1-2zM20 47.2l-1 2-2 1 2 1 1 2h.1l1-2 2-1-2-1-1-2z"/></svg>